<?xml version="1.0" standalone="no"?><!DOCTYPE svg PUBLIC "-//W3C//DTD SVG 1.1//EN" "http://www.w3.org/Graphics/SVG/1.1/DTD/svg11.dtd"><svg class="icon" width="200px" height="200.00px" viewBox="0 0 1024 1024" version="1.1" xmlns="http://www.w3.org/2000/svg"><path d="M894.863499 0.89921H114.849058c-16.385599 0-29.574007 13.388233-29.574007 29.973656v963.153478c0 16.585423 13.288321 29.973656 29.574007 29.973656h780.014441c16.385599 0 29.574007-13.388233 29.574007-29.973656v-963.153478c0-16.585423-13.188409-29.973656-29.574007-29.973656z m-20.382086 946.068494c0 14.986828-11.689726 27.076203-26.077081 27.076203H161.308225c-14.387355 0-26.077081-12.089375-26.07708-27.076203V77.931506c0-14.986828 11.689726-27.076203 26.07708-27.076203h687.196019c14.387355 0 26.077081 12.089375 26.077081 27.076203v869.036198z" fill="#dbdbdb" /><path d="M729.608742 836.265001h-449.604839c-13.787882 0-24.978047-11.190165-24.978047-24.978046s11.190165-24.978047 24.978047-24.978047h449.604839c13.787882 0 24.978047 11.190165 24.978047 24.978047s-11.090253 24.978047-24.978047 24.978046zM729.608742 632.444141h-449.604839c-13.787882 0-24.978047-11.190165-24.978047-24.978047s11.190165-24.978047 24.978047-24.978046h449.604839c13.787882 0 24.978047 11.190165 24.978047 24.978046s-11.090253 24.978047-24.978047 24.978047zM255.025856 0.499561v259.771685c0 27.575763 22.38033 49.956093 49.956093 49.956093h399.648747c27.575763 0 49.956093-22.38033 49.956093-49.956093V0.499561h-499.560933z m449.60484 235.293199c0 13.787882-11.190165 24.978047-24.978047 24.978047h-349.692653c-13.787882 0-24.978047-11.190165-24.978047-24.978047V50.955215h399.648747v184.837545z" fill="#dbdbdb" /></svg>