<?xml version="1.0" standalone="no"?><!DOCTYPE svg PUBLIC "-//W3C//DTD SVG 1.1//EN" "http://www.w3.org/Graphics/SVG/1.1/DTD/svg11.dtd"><svg class="icon" width="200px" height="200.00px" viewBox="0 0 1024 1024" version="1.1" xmlns="http://www.w3.org/2000/svg"><path d="M581.9 953.2H303.2c-13.8 0-25-11.2-25-25s11.2-25 25-25h278.7c13.8 0 25 11.2 25 25s-11.2 25-25 25z" fill="#bfbfbf" /><path d="M442.5 626.4H721v50H442.5z" fill="#bfbfbf" /><path d="M581.9 953.2c-9.9 0-18.8-5.6-23.3-14.6L417.5 657.3v-588H746v588L605.3 938.6c-4.5 9-13.5 14.6-23.4 14.6zM467.5 645.5l114.4 228 114.1-228V119.4H467.5v526.1z" fill="#bfbfbf" /></svg>